<svg id="Capa_1" enable-background="new 0 0 512 512" height="512" viewBox="0 0 512 512" width="512" xmlns="http://www.w3.org/2000/svg"><g><path d="m424.989 152.485c-30.178-20.581-66.656-35.754-106.906-43.564l-26.518-4.003c-11.773-1.281-23.802-1.944-36.031-1.944-16.42 0-32.479 1.195-48.041 3.478l-27.672 5.317c-21.826 5.213-42.407 12.622-61.315 21.892l-24.903 13.888c-10.877 6.864-21.013 14.406-30.301 22.541l-21.146 21.245c-23.17 26.839-38.117 58.295-42.05 92.208-1.118 9.642 6.78 17.985 16.486 17.985h23.842l412.492-45.985c15.853-33.597 9.437-77.569-27.937-103.058z" fill="#c38c66"/><path d="m255.534 144.339c-118.796 0-215.101 70.376-215.101 157.189h66.234l345.772-63.37c-33.346-55.252-108.963-93.819-196.905-93.819z" fill="#b57f5f"/><path d="m255.534 210.524-36.668 2.031c-14.987 1.687-29.256 4.386-42.534 7.954l-30.272 10.351c-39.208 16.686-64.26 42.145-64.26 70.668v16.546c0 4.569-3.704 8.273-8.273 8.273s-8.273 3.704-8.273 8.273 3.704 8.273 8.273 8.273h30.153c6.582 0 12.895-2.615 17.549-7.269l26.828-26.827c4.655-4.655 10.967-7.27 17.55-7.27h1.169l21.851-2.221 5.336 2.221h29.333l27.873-1.293 8.203 1.293h62.349 107.549c0-50.259-77.785-91.003-173.736-91.003z" fill="#9f6e50"/><g><path d="m39.504 276.709c-4.573 0-8.273-3.704-8.273-8.273v-8.273c0-4.569 3.7-8.273 8.273-8.273s8.273 3.704 8.273 8.273v8.273c0 4.569-3.7 8.273-8.273 8.273z" fill="#6e4848"/></g><path d="m70.011 191.081c4.145 3.692 6.601 8.778 6.924 14.32.315 5.542-1.543 10.879-5.235 15.023-3.038 3.409-2.731 8.641.679 11.678 1.575 1.406 3.539 2.097 5.502 2.097 2.278 0 4.541-.937 6.181-2.771 6.625-7.445 9.962-17.027 9.388-26.98-.574-9.954-4.985-19.091-12.434-25.72-5.059-4.507-11.24-7.37-17.713-8.639-7.658 6.706-14.701 13.778-21.146 21.244 3.521-3.246 7.982-5.201 12.827-5.48 5.647-.326 10.891 1.54 15.027 5.228z" fill="#b57f5f"/><g><path d="m104.041 146.125c5.534.691 10.471 3.498 13.896 7.897 7.061 9.085 5.421 22.23-3.66 29.299-3.603 2.808-4.25 8.006-1.446 11.61 1.632 2.097 4.072 3.191 6.536 3.191 1.777 0 3.563-.57 5.074-1.745 16.28-12.672 19.22-36.231 6.552-52.515-3.399-4.367-7.709-7.746-12.488-10.202-8.663 4.247-16.983 8.892-24.903 13.888 3.257-1.321 6.846-1.871 10.439-1.423z" fill="#b57f5f"/></g><g><path d="m187.693 152.152c-4.314 1.499-6.601 6.213-5.098 10.531 1.188 3.417 4.387 5.563 7.813 5.563.897 0 1.818-.149 2.715-.461 19.455-6.754 29.788-28.083 23.034-47.542-1.865-5.375-4.921-9.978-8.663-13.792-9.421 1.382-18.646 3.161-27.672 5.317 8.979-.432 17.611 4.977 20.71 13.904 3.755 10.838-1.997 22.719-12.839 26.48z" fill="#b57f5f"/></g><g><path d="m277.622 162.38c2.012.319 4.015.473 5.995.473 18.34 0 34.539-13.351 37.512-32.034 1.226-7.715.012-15.289-3.046-21.898-8.668-1.682-17.526-3.023-26.518-4.003 9.08 3.654 14.829 13.241 13.228 23.303-1.858 11.683-12.83 19.701-24.569 17.815-4.597-.715-8.75 2.363-9.469 6.871-.719 4.512 2.359 8.754 6.867 9.473z" fill="#b57f5f"/></g><g fill="#9f6e50"><path d="m107.555 198.611c7.11 1.846 13.08 6.354 16.805 12.688s4.759 13.739 2.917 20.852c-1.85 7.114-6.358 13.08-12.692 16.809-3.943 2.315-5.251 7.384-2.941 11.323 1.543 2.622 4.306 4.08 7.142 4.08 1.422 0 2.868-.368 4.185-1.143 10.147-5.962 17.362-15.52 20.319-26.912s1.301-23.252-4.662-33.395c-5.592-9.504-14.354-16.398-24.8-19.669-7.572 4.854-14.788 10.18-21.363 15.758 4.837-1.502 10.067-1.692 15.09-.391z"/><path d="m182.474 181.592c7.958 15.124 2.133 33.904-12.983 41.866-4.04 2.129-5.599 7.13-3.466 11.174 1.479 2.816 4.355 4.419 7.328 4.419 1.301 0 2.618-.307 3.846-.953 23.187-12.212 32.123-41.014 19.915-64.214-4.391-8.338-10.903-14.868-18.548-19.2-12.895 3.615-25.144 8.099-36.706 13.376 14.914-7.102 32.847-1.217 40.614 13.532z"/><path d="m244.061 227.789c.259 0 .525-.012.792-.036 27.494-2.63 47.724-27.138 45.09-54.628-.998-10.481-5.204-20.131-11.961-27.932-7.379-.559-14.866-.854-22.448-.854-3.921 0-7.813.087-11.683.238 6.408.712 12.493 3.235 17.588 7.441 6.916 5.704 11.182 13.759 12.038 22.678 1.753 18.413-11.788 34.825-30.192 36.583-4.549.436-7.885 4.476-7.449 9.024.405 4.283 4.008 7.486 8.225 7.486z"/></g><path d="m166.774 301.528h27.187c2.738-3.295 5.228-6.816 7.152-10.766 6.278-12.886 7.166-27.449 2.488-41.002-4.442-12.869-13.615-23.334-25.538-29.735-11.465 2.995-22.153 6.641-32.003 10.834 7.779-1.467 15.796-.508 23.06 3.025 8.919 4.343 15.609 11.897 18.841 21.273 3.232 9.372 2.626 19.443-1.721 28.358-4.046 8.312-10.958 14.565-19.466 18.013z" fill="#855b48"/><path d="m218.865 212.555c21.867.876 40.362 17.636 42.744 39.961 2.557 24.05-14.544 45.692-38.316 49.012h36.076c13.264-12.694 20.774-31.132 18.689-50.762-1.735-16.293-9.859-30.493-21.475-40.324 0 0-.596-.042-.979-.042-12.57.001-24.927.827-36.739 2.155z" fill="#855b48"/><g><path d="m512 301.487c0-59.393-48.147-107.54-107.54-107.54-26.194 0-50.2 9.365-68.854 24.929-23.642 19.727-35.495 49.412-35.495 82.61 0 59.392 44.956 103.369 104.349 103.369 33.208 0 62.901-10.882 82.627-34.536 15.555-18.65 24.913-42.648 24.913-68.832z" fill="#faf5dc"/><path d="m338.282 293.214h132.356v16.545h-132.356z" fill="#ffd064" transform="matrix(-.707 .707 -.707 -.707 903.64 228.673)"/><circle cx="451.255" cy="254.691" fill="#ffe07d" r="8.272"/><circle cx="357.665" cy="348.282" fill="#ffe07d" r="8.272"/><path d="m338.282 293.214h132.356v16.545h-132.356z" fill="#ffd064" transform="matrix(.707 .707 -.707 .707 331.647 -197.693)"/><circle cx="357.665" cy="254.691" fill="#ffe07d" r="8.272"/><circle cx="451.255" cy="348.282" fill="#ffe07d" r="8.272"/><path d="m338.282 293.214h132.356v16.545h-132.356z" fill="#ffd064" transform="matrix(0 1 -1 0 705.947 -102.974)"/><circle cx="404.46" cy="235.308" fill="#ffe07d" r="8.272"/><circle cx="404.46" cy="367.665" fill="#ffe07d" r="8.272"/><path d="m338.282 293.214h132.356v16.545h-132.356z" fill="#ffd064"/><path d="m445.822 301.487c0-22.843-18.518-41.361-41.361-41.361-8.239 0-15.915 2.409-22.363 6.561-11.429 7.36-15.781 20.196-15.781 34.801 0 22.843 15.301 38.734 38.144 38.734 14.623 0 27.474-4.961 34.829-16.415 4.134-6.44 6.532-14.1 6.532-22.32z" fill="#ff8086"/><path d="m416.869 330.439c-22.843 0-41.361-18.518-41.361-41.361 0-8.24 2.437-15.944 6.59-22.392-11.427 7.36-18.998 20.198-18.998 34.801 0 22.843 18.518 41.361 41.361 41.361 14.603 0 27.469-7.615 34.829-19.043-6.449 4.154-14.181 6.634-22.421 6.634z" fill="#e5646e"/><g fill="#ffe07d"><path d="m418.59 302.521c-4.572 0-8.305-3.704-8.305-8.272s3.66-8.272 8.232-8.272h.073c4.572 0 8.272 3.704 8.272 8.272s-3.7 8.272-8.272 8.272z"/><path d="m404.452 323.718c-4.572 0-8.305-3.704-8.305-8.272s3.668-8.272 8.24-8.272h.065c4.572 0 8.272 3.704 8.272 8.272s-3.699 8.272-8.272 8.272z"/><path d="m390.323 302.521c-4.572 0-8.313-3.704-8.313-8.272s3.668-8.272 8.24-8.272h.073c4.572 0 8.272 3.704 8.272 8.272s-3.699 8.272-8.272 8.272z"/><circle cx="338.282" cy="301.487" r="8.272"/><circle cx="470.639" cy="301.487" r="8.272"/></g><path d="m418.248 395.239c-59.393 0-107.54-48.147-107.54-107.54 0-26.186 9.343-50.172 24.898-68.823-23.653 19.727-38.686 49.404-38.686 82.61 0 59.392 48.147 107.54 107.54 107.54 33.207 0 62.9-15.053 82.627-38.706-18.65 15.556-42.654 24.919-68.839 24.919z" fill="#f5ebcd"/></g></g></svg>